<svg width="40" height="40" viewBox="0 0 40 40" fill="none" xmlns="http://www.w3.org/2000/svg">
<path d="M33.4499 10.5832H24.9999V12.9332H33.4833L33.4499 10.5832ZM31.6666 26.7499C31.0255 27.1746 30.2685 27.3901 29.4999 27.3666C28.9911 27.4196 28.4769 27.3671 27.9893 27.2122C27.5018 27.0573 27.0515 26.8035 26.6666 26.4666C25.9549 25.6597 25.5844 24.608 25.6333 23.5332H36.6666C36.7461 22.4141 36.6505 21.2895 36.3833 20.1999C36.1247 19.1633 35.6723 18.1849 35.0499 17.3166C34.4235 16.4742 33.6143 15.7848 32.6833 15.2999C31.6473 14.7891 30.5048 14.5321 29.3499 14.5499C28.2638 14.5419 27.187 14.7516 26.1833 15.1666C25.2641 15.5541 24.4312 16.1206 23.7333 16.8332C23.0372 17.5601 22.4983 18.4224 22.1499 19.3666C21.7761 20.3858 21.5898 21.4643 21.5999 22.5499C21.5828 23.6509 21.7634 24.7461 22.1333 25.7832C22.4474 26.7225 22.946 27.5894 23.5999 28.3332C24.2764 29.0635 25.1079 29.633 26.0333 29.9999C27.0651 30.393 28.1625 30.5854 29.2666 30.5666C30.8156 30.6149 32.345 30.2093 33.6666 29.3999C35.0014 28.4513 35.9625 27.0658 36.3833 25.4832H32.6999C32.5027 26.0068 32.1399 26.4516 31.6666 26.7499ZM25.9499 19.8832C26.0796 19.4677 26.295 19.084 26.582 18.7567C26.8691 18.4295 27.2215 18.166 27.6166 17.9832C28.1398 17.7477 28.7097 17.6337 29.2833 17.6499C29.6976 17.6145 30.1147 17.6692 30.506 17.8101C30.8972 17.9511 31.2533 18.175 31.5499 18.4666C32.1162 19.1598 32.4796 19.9962 32.5999 20.8832H25.6833C25.7102 20.5445 25.7717 20.2095 25.8666 19.8832H25.9499ZM17.1333 19.0832C17.9815 18.73 18.7186 18.1542 19.2666 17.4166C19.7703 16.6332 20.0205 15.7138 19.9833 14.7832C20.0159 13.9346 19.8504 13.0901 19.4999 12.3166C19.2054 11.6464 18.7327 11.0699 18.1333 10.6499C17.4977 10.2132 16.7759 9.91767 16.0166 9.78323C15.118 9.59475 14.2014 9.50533 13.2833 9.51657H3.33325V30.4832H13.4999C14.4277 30.4839 15.3518 30.3663 16.2499 30.1332C17.1012 29.913 17.9076 29.5465 18.6333 29.0499C19.3361 28.5628 19.9085 27.9103 20.2999 27.1499C20.7331 26.2995 20.9452 25.3538 20.9166 24.3999C20.9482 23.2178 20.6166 22.0544 19.9666 21.0666C19.2676 20.0731 18.2308 19.3681 17.0499 19.0832H17.1333ZM7.94992 13.0999H12.2666C12.6632 13.0994 13.059 13.1329 13.4499 13.1999C13.8098 13.2532 14.1555 13.3779 14.4666 13.5666C14.7672 13.7366 15.0107 13.9917 15.1666 14.2999C15.3596 14.6694 15.4516 15.0834 15.4333 15.4999C15.4643 15.8586 15.4094 16.2196 15.2732 16.5529C15.137 16.8862 14.9233 17.1823 14.6499 17.4166C14.0535 17.8266 13.3397 18.0314 12.6166 17.9999H7.94992V13.0999ZM16.0166 25.4999C15.8454 25.8396 15.5864 26.1273 15.2666 26.3332C14.9338 26.5402 14.567 26.6869 14.1833 26.7666C13.7567 26.8621 13.3203 26.9068 12.8833 26.8999H7.88325V21.1499H12.8833C13.7413 21.1123 14.5886 21.3519 15.2999 21.8332C15.6213 22.1216 15.8702 22.4816 16.0266 22.8841C16.1829 23.2866 16.2423 23.7202 16.1999 24.1499C16.245 24.608 16.1822 25.0704 16.0166 25.4999Z" fill="white"/>
</svg>
