<svg width="40" height="40" viewBox="0 0 40 40" fill="none" xmlns="http://www.w3.org/2000/svg">
<path fill-rule="evenodd" clip-rule="evenodd" d="M19.9999 3.33325C29.2049 3.33325 36.6666 10.7949 36.6666 19.9999C36.6666 29.2049 29.2049 36.6666 19.9999 36.6666C10.7949 36.6666 3.33325 29.2049 3.33325 19.9999C3.33325 10.7949 10.7949 3.33325 19.9999 3.33325ZM22.6949 23.3049C18.4463 24.5561 14.7321 27.1802 12.1333 30.7666C14.415 32.4385 17.1712 33.3378 19.9999 33.3333C21.7305 33.3361 23.4449 33.0004 25.0466 32.3449C24.5223 29.27 23.7356 26.2456 22.6949 23.3049ZM25.9916 22.6349C26.8783 25.2066 27.5916 27.8599 28.1149 30.5816C30.5601 28.7067 32.2809 26.0431 32.9849 23.0433C30.6954 22.5005 28.3287 22.3624 25.9916 22.6349ZM20.5849 18.1866C16.1252 19.7592 11.3714 20.3194 6.66825 19.8266L6.66659 19.9999C6.66659 23.2116 7.80325 26.1583 9.69492 28.4599C12.6554 24.531 16.7801 21.6364 21.4816 20.1883C21.1961 19.5157 20.8972 18.8489 20.5849 18.1883V18.1866ZM30.8133 12.1983C28.6547 14.0834 26.2506 15.6673 23.6666 16.9066C24.0566 17.7399 24.4283 18.5816 24.7799 19.4349C27.6133 19.0016 30.5299 19.0916 33.3299 19.7033C33.2743 17.0038 32.3963 14.3855 30.8133 12.1983ZM14.2883 7.94992C12.5463 8.7778 11.0041 9.97286 9.76762 11.453C8.53112 12.9332 7.62959 14.6634 7.12492 16.5249C11.1506 16.9315 15.2167 16.477 19.0533 15.1916C17.6576 12.6563 16.0643 10.2349 14.2883 7.94992ZM19.9999 6.66659C19.1999 6.66659 18.4166 6.73659 17.6583 6.87159C19.3269 9.11351 20.8325 11.4723 22.1633 13.9299C24.4667 12.833 26.6116 11.4303 28.5399 9.75992C26.1453 7.7571 23.1217 6.66189 19.9999 6.66659Z" fill="white"/>
</svg>
