<svg width="40" height="40" viewBox="0 0 40 40" fill="none" xmlns="http://www.w3.org/2000/svg">
<path d="M27.0667 36.6667C26.6247 36.6667 26.2008 36.4912 25.8882 36.1786C25.5757 35.866 25.4001 35.4421 25.4001 35.0001V30.6667C25.4518 30.1683 25.3985 29.6645 25.2435 29.188C25.0885 28.7114 24.8352 28.2727 24.5001 27.9001C24.2926 27.675 24.1511 27.3972 24.091 27.097C24.031 26.7969 24.0548 26.486 24.1599 26.1985C24.2649 25.911 24.4471 25.6579 24.6864 25.4671C24.9258 25.2763 25.213 25.1551 25.5167 25.1167C29.5834 24.6334 33.3334 23.3334 33.3334 16.2834C33.3347 14.9669 32.9461 13.6794 32.2167 12.5834C31.5437 11.5745 31.2979 10.3399 31.5334 9.15008C31.6836 8.37395 31.6836 7.57621 31.5334 6.80008C30.2854 7.22204 29.1103 7.83487 28.0501 8.61675C27.8496 8.75911 27.6201 8.85535 27.3781 8.89857C27.136 8.94179 26.8874 8.93092 26.6501 8.86675C23.6423 8.01684 20.4578 8.01684 17.4501 8.86675C17.2127 8.93092 16.9641 8.94179 16.7221 8.89857C16.48 8.85535 16.2505 8.75911 16.0501 8.61675C14.9833 7.82581 13.7958 7.21236 12.5334 6.80008C12.3749 7.5754 12.3749 8.37477 12.5334 9.15008C12.7519 10.3548 12.495 11.5974 11.8167 12.6167C11.0905 13.7205 10.7024 15.0122 10.7001 16.3334C10.7001 22.8167 13.8334 24.5501 18.5334 25.1501C18.8409 25.1882 19.1318 25.3114 19.3732 25.5057C19.6146 25.7 19.7971 25.9578 19.9001 26.2501C19.997 26.5337 20.0156 26.8382 19.954 27.1315C19.8924 27.4248 19.7529 27.6961 19.5501 27.9167C19.2259 28.2633 18.9771 28.6732 18.8193 29.1207C18.6615 29.5682 18.5982 30.0436 18.6334 30.5167V35.0001C18.6334 35.4421 18.4578 35.866 18.1452 36.1786C17.8327 36.4912 17.4088 36.6667 16.9667 36.6667C16.5247 36.6667 16.1008 36.4912 15.7882 36.1786C15.4757 35.866 15.3001 35.4421 15.3001 35.0001V34.0501C13.6623 34.2384 12.0034 34.019 10.471 33.4112C8.93862 32.8035 7.58022 31.8264 6.51673 30.5667C5.97007 29.9608 5.3142 29.4633 4.5834 29.1001C4.37109 29.0454 4.17165 28.9494 3.99644 28.8176C3.82124 28.6858 3.67371 28.5208 3.56228 28.3319C3.45085 28.1431 3.3777 27.9342 3.34701 27.7171C3.31631 27.5001 3.32868 27.2791 3.3834 27.0667C3.43811 26.8544 3.53411 26.655 3.66591 26.4798C3.79771 26.3046 3.96272 26.1571 4.15154 26.0456C4.34035 25.9342 4.54926 25.8611 4.76634 25.8304C4.98343 25.7997 5.20443 25.812 5.41673 25.8667C6.69881 26.3338 7.8444 27.1128 8.75006 28.1334C10.4167 29.8001 12.0834 31.2667 15.2501 30.6667C15.1944 29.7719 15.3249 28.8752 15.6334 28.0334C12.2001 27.1667 7.30006 24.7001 7.30006 16.3667C7.29567 14.3928 7.87558 12.4617 8.96673 10.8167C9.1694 10.5131 9.24702 10.1429 9.1834 9.78341C8.84661 7.98437 9.03763 6.12631 9.7334 4.43342C9.82794 4.20769 9.97102 4.00555 10.1525 3.84136C10.334 3.67718 10.5494 3.55497 10.7834 3.48342C11.3501 3.31675 13.3834 2.98342 17.2334 5.48342C20.35 4.73342 23.6001 4.73342 26.7167 5.48342C30.5667 2.98342 32.6001 3.30008 33.1501 3.48342C33.3841 3.55497 33.5995 3.67718 33.781 3.84136C33.9624 4.00555 34.1055 4.20769 34.2001 4.43342C34.8972 6.1318 35.0882 7.99559 34.7501 9.80008C34.716 9.96267 34.7146 10.1304 34.7461 10.2935C34.7776 10.4567 34.8412 10.6119 34.9334 10.7501C36.0277 12.3998 36.6078 14.3371 36.6001 16.3167C36.6001 24.7667 31.7334 27.2167 28.2667 27.9834C28.5721 28.8777 28.6968 29.8238 28.6334 30.7667V35.0001C28.6342 35.4253 28.4724 35.8348 28.1811 36.1446C27.8899 36.4544 27.4912 36.6412 27.0667 36.6667Z" fill="white"/>
</svg>
