<svg width="40" height="40" viewBox="0 0 40 40" fill="none" xmlns="http://www.w3.org/2000/svg">
<path d="M28.8999 9.09992C28.5044 9.09992 28.1177 9.21722 27.7888 9.43698C27.4599 9.65674 27.2035 9.9691 27.0522 10.3346C26.9008 10.7 26.8612 11.1021 26.9383 11.4901C27.0155 11.8781 27.206 12.2344 27.4857 12.5141C27.7654 12.7938 28.1218 12.9843 28.5097 13.0615C28.8977 13.1387 29.2998 13.0991 29.6653 12.9477C30.0307 12.7963 30.3431 12.54 30.5629 12.2111C30.7826 11.8822 30.8999 11.4955 30.8999 11.0999C30.8999 10.5695 30.6892 10.0608 30.3141 9.68571C29.9391 9.31063 29.4304 9.09992 28.8999 9.09992ZM36.5666 13.1333C36.5342 11.7504 36.2752 10.3823 35.7999 9.08325C35.3761 7.97181 34.7166 6.96538 33.8666 6.13325C33.0413 5.27896 32.0325 4.62355 30.9166 4.21659C29.621 3.72685 28.2513 3.46194 26.8666 3.43325C25.0999 3.33325 24.5333 3.33325 19.9999 3.33325C15.4666 3.33325 14.8999 3.33325 13.1333 3.43325C11.7485 3.46194 10.3788 3.72685 9.08325 4.21659C7.96938 4.62767 6.96148 5.28252 6.13325 6.13325C5.27896 6.95855 4.62355 7.96732 4.21659 9.08325C3.72685 10.3788 3.46194 11.7485 3.43325 13.1333C3.33325 14.8999 3.33325 15.4666 3.33325 19.9999C3.33325 24.5333 3.33325 25.0999 3.43325 26.8666C3.46194 28.2513 3.72685 29.621 4.21659 30.9166C4.62355 32.0325 5.27896 33.0413 6.13325 33.8666C6.96148 34.7173 7.96938 35.3722 9.08325 35.7833C10.3788 36.273 11.7485 36.5379 13.1333 36.5666C14.8999 36.6666 15.4666 36.6666 19.9999 36.6666C24.5333 36.6666 25.0999 36.6666 26.8666 36.5666C28.2513 36.5379 29.621 36.273 30.9166 35.7833C32.0325 35.3763 33.0413 34.7209 33.8666 33.8666C34.7203 33.0376 35.3805 32.0302 35.7999 30.9166C36.2752 29.6176 36.5342 28.2494 36.5666 26.8666C36.5666 25.0999 36.6666 24.5333 36.6666 19.9999C36.6666 15.4666 36.6666 14.8999 36.5666 13.1333ZM33.5666 26.6666C33.5545 27.7245 33.3628 28.7728 32.9999 29.7666C32.7338 30.4919 32.3064 31.1473 31.7499 31.6833C31.2093 32.2341 30.5553 32.6606 29.8333 32.9333C28.8394 33.2962 27.7912 33.4878 26.7333 33.4999C25.0666 33.5833 24.4499 33.5999 20.0666 33.5999C15.6833 33.5999 15.0666 33.5999 13.3999 33.4999C12.3014 33.5205 11.2076 33.3513 10.1666 32.9999C9.47622 32.7134 8.85218 32.2879 8.33325 31.7499C7.78007 31.2145 7.35799 30.5586 7.09992 29.8333C6.69301 28.8252 6.46732 27.7532 6.43325 26.6666C6.43325 24.9999 6.33325 24.3833 6.33325 19.9999C6.33325 15.6166 6.33325 14.9999 6.43325 13.3333C6.44072 12.2517 6.63817 11.1798 7.01659 10.1666C7.31 9.4631 7.76036 8.83602 8.33325 8.33325C8.83961 7.7602 9.4654 7.30508 10.1666 6.99992C11.1825 6.63332 12.2532 6.44172 13.3333 6.43325C14.9999 6.43325 15.6166 6.33325 19.9999 6.33325C24.3833 6.33325 24.9999 6.33325 26.6666 6.43325C27.7245 6.44539 28.7728 6.637 29.7666 6.99992C30.524 7.28101 31.2037 7.738 31.7499 8.33325C32.2961 8.84522 32.7229 9.47114 32.9999 10.1666C33.3703 11.1815 33.5621 12.2529 33.5666 13.3333C33.6499 14.9999 33.6666 15.6166 33.6666 19.9999C33.6666 24.3833 33.6499 24.9999 33.5666 26.6666ZM19.9999 11.4499C18.3096 11.4532 16.6582 11.9575 15.2543 12.8989C13.8505 13.8404 12.7572 15.1769 12.1126 16.7395C11.4681 18.3021 11.3011 20.0207 11.6329 21.6781C11.9647 23.3356 12.7803 24.8575 13.9767 26.0515C15.1731 27.2456 16.6966 28.0583 18.3547 28.3868C20.0128 28.7154 21.731 28.5451 23.2924 27.8975C24.8537 27.2499 26.188 26.154 27.1268 24.7483C28.0656 23.3426 28.5666 21.6902 28.5666 19.9999C28.5688 18.8751 28.3486 17.7609 27.9187 16.7215C27.4887 15.6821 26.8575 14.7379 26.0614 13.9433C25.2652 13.1487 24.3198 12.5194 23.2796 12.0915C22.2393 11.6636 21.1247 11.4455 19.9999 11.4499ZM19.9999 25.5499C18.9022 25.5499 17.8292 25.2244 16.9165 24.6146C16.0038 24.0047 15.2925 23.1379 14.8724 22.1238C14.4523 21.1097 14.3424 19.9938 14.5566 18.9172C14.7707 17.8406 15.2993 16.8517 16.0755 16.0755C16.8517 15.2993 17.8406 14.7707 18.9172 14.5566C19.9938 14.3424 21.1097 14.4523 22.1238 14.8724C23.1379 15.2925 24.0047 16.0038 24.6146 16.9165C25.2244 17.8292 25.5499 18.9022 25.5499 19.9999C25.5499 20.7288 25.4064 21.4505 25.1275 22.1238C24.8485 22.7972 24.4397 23.409 23.9244 23.9244C23.409 24.4397 22.7972 24.8485 22.1238 25.1275C21.4505 25.4064 20.7288 25.5499 19.9999 25.5499Z" fill="white"/>
</svg>
