<svg width="24" height="24" viewBox="0 0 24 24" fill="none" xmlns="http://www.w3.org/2000/svg">
<path fill-rule="evenodd" clip-rule="evenodd" d="M2.96011 12.0001C2.96011 11.5409 2.99371 11.0897 3.06091 10.6497L15.3009 3.58251C15.7809 3.76971 16.2401 3.99851 16.6753 4.26091L6.03211 10.4049C5.92327 10.4637 5.83156 10.5498 5.76594 10.6547C5.70032 10.7596 5.66303 10.8797 5.65771 11.0033C5.65117 11.1265 5.67661 11.2493 5.73156 11.3598C5.78651 11.4702 5.8691 11.5646 5.97131 11.6337L11.7185 15.7409L6.19371 18.9313C5.17988 18.0834 4.36474 17.0231 3.80597 15.8254C3.2472 14.6276 2.95843 13.3218 2.96011 12.0001ZM13.3889 16.4401C13.4025 16.4331 13.4158 16.4256 13.4289 16.4177L15.7457 15.0801C15.7554 15.075 15.765 15.0697 15.7745 15.0641L18.0961 13.7233C18.202 13.6653 18.2916 13.5816 18.3567 13.4799C18.4218 13.3782 18.4602 13.2617 18.4685 13.1413C18.4768 13.0208 18.4546 12.9002 18.4041 12.7905C18.3536 12.6809 18.2763 12.5857 18.1793 12.5137L12.5249 8.32011L17.9457 5.18891C19.121 6.21182 20.0113 7.52175 20.5297 8.99106C21.0482 10.4604 21.1772 12.0389 20.9041 13.5729L8.91051 20.4961C8.42204 20.3186 7.94988 20.0991 7.49931 19.8401L13.3889 16.4401ZM13.0897 14.9505L7.70731 11.1025L8.81451 10.4625L14.0897 14.3729L13.0897 14.9505ZM10.1761 9.67691L11.1681 9.10571L16.4417 13.0161L15.4497 13.5889L10.1761 9.67691ZM13.3329 3.05771L3.58891 8.68171C4.33904 6.78147 5.71049 5.19121 7.47986 4.16997C9.24923 3.14873 11.3123 2.75669 13.3329 3.05771ZM10.9553 20.9809C12.8865 21.2056 14.8386 20.802 16.5223 19.8299C18.206 18.8578 19.5316 17.3689 20.3025 15.5841L10.9553 20.9809ZM12.0001 1.36011C10.6028 1.36011 9.21926 1.63532 7.92836 2.17003C6.63745 2.70474 5.46451 3.48848 4.47649 4.47649C3.48848 5.46451 2.70474 6.63745 2.17003 7.92836C1.63532 9.21926 1.36011 10.6028 1.36011 12.0001C1.36011 13.3974 1.63532 14.781 2.17003 16.0719C2.70474 17.3628 3.48848 18.5357 4.47649 19.5237C5.46451 20.5117 6.63745 21.2955 7.92836 21.8302C9.21926 22.3649 10.6028 22.6401 12.0001 22.6401C14.822 22.6401 17.5283 21.5191 19.5237 19.5237C21.5191 17.5283 22.6401 14.822 22.6401 12.0001C22.6401 9.1782 21.5191 6.47188 19.5237 4.47649C17.5283 2.4811 14.822 1.36011 12.0001 1.36011Z" fill="black"/>
</svg>
