<svg width="1040" height="1000" viewBox="0 0 1040 1000" fill="none" xmlns="http://www.w3.org/2000/svg">
<mask id="mask0_1055_858" style="mask-type:alpha" maskUnits="userSpaceOnUse" x="136" y="96" width="768" height="768">
<circle cx="520" cy="480" r="384" fill="#D9D9D9"/>
</mask>
<g mask="url(#mask0_1055_858)">
<rect x="-198" y="96" width="1440" height="768" fill="#0A0C0B"/>
<line x1="-197" y1="233.5" x2="1243" y2="233.5" stroke="#37FF9F" stroke-opacity="0.4"/>
<line x1="-197" y1="425.5" x2="1243" y2="425.5" stroke="#37FF9F" stroke-opacity="0.4"/>
<line x1="-188" y1="617.5" x2="1252" y2="617.5" stroke="#37FF9F" stroke-opacity="0.4"/>
<line x1="-197" y1="809.5" x2="1243" y2="809.5" stroke="#37FF9F" stroke-opacity="0.4"/>
<line x1="-197" y1="329.5" x2="1243" y2="329.5" stroke="#37FF9F" stroke-opacity="0.4"/>
<line x1="-197" y1="521.5" x2="1243" y2="521.5" stroke="#37FF9F" stroke-opacity="0.4"/>
<line x1="-188" y1="713.5" x2="1252" y2="713.5" stroke="#37FF9F" stroke-opacity="0.4"/>
<line x1="239" y1="1246.5" x2="239" y2="-193.5" stroke="#37FF9F" stroke-opacity="0.4"/>
<line x1="431" y1="1246.5" x2="431" y2="-193.5" stroke="#37FF9F" stroke-opacity="0.4"/>
<line x1="623" y1="1237.5" x2="623" y2="-202.5" stroke="#37FF9F" stroke-opacity="0.4"/>
<line x1="815" y1="1246.5" x2="815" y2="-193.5" stroke="#37FF9F" stroke-opacity="0.4"/>
<line x1="335" y1="1246.5" x2="335" y2="-193.5" stroke="#37FF9F" stroke-opacity="0.4"/>
<line x1="527" y1="1246.5" x2="527" y2="-193.5" stroke="#37FF9F" stroke-opacity="0.4"/>
<line x1="719" y1="1237.5" x2="719" y2="-202.5" stroke="#37FF9F" stroke-opacity="0.4"/>
</g>
</svg>
