<svg width="239" height="211" viewBox="0 0 239 211" fill="none" xmlns="http://www.w3.org/2000/svg">
<path fill-rule="evenodd" clip-rule="evenodd" d="M211.321 0.767367C208.976 1.0517 201.157 1.97606 193.906 2.82905C162.061 6.52534 158.294 9.93731 173.292 21.3105L182.178 28.0634L107.541 137.531C87.2823 73.1298 88.4196 73.6274 67.6635 97.7955C53.6602 114.216 37.5245 134.119 16.9105 160.632C-2.49503 185.511 -2.56618 185.654 3.68911 186.222C8.87814 186.649 8.87842 186.649 30.9851 159.14C61.6217 120.968 80.8849 97.5822 81.6668 97.5111C81.9511 97.5111 84.9366 105.686 88.3485 115.779C104.058 161.912 104.2 161.983 121.686 135.54C137.182 112.083 189.144 38.0149 192.698 30.9067C195.683 25.149 192.413 22.732 178.623 11.8563C212.388 7.73353 207.625 8.08895 216.795 7.59137C225.68 51.5204 226.675 52.0894 226.249 52.4448C225.893 52.8002 214.52 44.1991 211.89 41.5691C205.99 35.6692 204.498 37.0907 181.893 70.5708C160.995 101.492 104.058 184.232 102.636 186.364C100.859 188.994 100.006 189.847 100.006 188.852C100.006 184.658 82.3065 135.682 80.174 133.977C76.6199 131.062 72.7815 133.052 67.237 140.729C62.3325 147.553 44.7038 171.153 32.9041 186.578C16.7684 207.76 15.4179 210.604 21.2466 210.604C25.7249 210.604 28.7813 207.049 50.6748 176.839C77.4018 139.947 73.8477 142.222 79.7476 158.216C93.2533 194.894 94.746 193.757 95.9544 198.662C96.8785 202.5 101.57 201.86 105.835 197.24C109.602 193.259 113.583 187.573 133.273 158.784C177.273 94.3124 206.559 52.1604 207.412 52.1604C207.696 52.1604 209.9 53.6532 212.174 55.5724C224.543 65.524 234.708 67.2299 238.546 60.0506C239.612 57.9892 229.163 13.136 225.822 5.6012C223.832 0.554332 226.889 -1.15186 211.321 0.767367Z" fill="#37FF9F"/>
</svg>
