<svg width="409" height="131" viewBox="0 0 409 131" fill="none" xmlns="http://www.w3.org/2000/svg">
<path d="M395.125 5.96177C391.436 7.84785 387.85 9.5569 384.161 11.443C380.09 13.581 376.019 15.719 372.023 18.1362C367.366 20.8802 362.746 23.7638 358.023 26.8245C354.689 28.9148 351.429 31.2843 348.094 33.3747C346.427 34.4199 344.582 35.3629 342.738 36.3059C341.275 36.9971 339.99 37.7903 338.527 38.4814C338.108 38.5938 337.549 38.7435 337.13 38.8559C337.12 38.2601 337.212 37.4873 337.203 36.8915C337.155 36.1561 337.285 35.5229 337.238 34.7875C337.273 32.6835 337.271 30.44 337.307 28.336C337.212 26.8652 337.118 25.3945 337.061 24.0633C337.014 23.328 336.827 22.63 336.602 21.7925C336.415 21.0946 336.088 20.4341 335.762 19.7737C335.323 18.6944 334.427 17.588 333.606 16.7607C333.037 16.3147 332.468 15.8687 331.657 15.6372C330.846 15.4057 330.073 15.3138 329.336 15.3614C328.74 15.3716 328.041 15.5589 327.305 15.6065C326.746 15.7563 326.047 15.9436 325.488 16.0934C323.988 16.6449 322.563 17.4756 321.175 18.4459C320.169 19.1642 319.126 19.743 317.943 20.3592C316.136 21.4418 314.329 22.5245 312.559 23.7467C308.74 26.266 304.884 28.6457 301.103 31.3046C296.418 34.5048 291.872 37.6676 287.187 40.8678C282.884 43.8161 278.581 46.7644 274.203 49.4335C271.53 51.197 268.782 52.6814 265.932 54.3428C263.221 55.9667 260.333 57.4885 257.371 58.7312C254.408 59.9738 251.231 60.9747 247.942 61.5569C246.926 61.6794 245.873 61.6624 244.96 61.6079C244.326 61.4786 243.692 61.3492 243.021 61.0802C242.489 60.7738 241.995 60.607 241.464 60.3006C241.286 60.1985 241.072 59.9567 241.034 59.8172C240.531 59.0545 240.129 58.1149 239.765 57.3148C239.176 55.6773 238.727 54.0023 238.316 52.4668C237.905 50.9314 237.493 49.396 236.942 47.898C236.306 45.5251 235.568 43.3291 234.653 41.0311C233.448 38.2122 232.066 35.2911 229.678 33.0884C229.109 32.6424 228.54 32.1964 227.832 31.7879C227.123 31.3793 226.452 31.1104 225.781 30.8414C224.438 30.3035 223.031 30.0822 221.661 30.0005C220.924 30.0481 220.226 30.2354 219.489 30.2831C219.35 30.3205 219.21 30.358 219.07 30.3954C218.511 30.5452 218.092 30.6575 217.57 30.9469C215.93 31.5359 214.328 32.2645 212.763 33.1326C211.338 33.9633 210.09 34.8961 208.702 35.8664C207.454 36.7992 206.029 37.6299 204.781 38.5628C202.005 40.5033 199.305 42.723 196.604 44.9428C194.145 46.948 191.724 49.0928 189.303 51.2377C187.99 52.4871 186.639 53.597 185.326 54.8464C183.287 56.7393 181.387 58.5948 179.348 60.4877C176.378 63.3781 173.268 66.306 170.297 69.1964C166.982 72.4783 163.528 75.7977 160.175 78.94C156.032 83.0424 151.571 87.0802 146.998 90.6991C145.126 92.0984 143.254 93.4976 141.345 94.7573C139.435 96.0169 137.526 97.2766 135.365 98.155C133.725 98.7439 132.085 99.3329 130.231 99.6802C129.634 99.6904 129.038 99.7006 128.441 99.7108C128.124 99.6461 127.63 99.4793 127.313 99.4146C126.782 99.1082 126.428 98.9039 125.896 98.5975C125.719 98.4954 125.682 98.3558 125.504 98.2537C124.963 97.3515 124.384 96.3097 123.983 95.37C123.432 93.8721 122.88 92.3741 122.469 90.8387C121.918 89.3407 121.367 87.8427 120.993 86.4468C120.217 84.1114 119.264 81.6737 118.209 79.4131C117.556 78.0922 116.8 76.9483 116.006 75.6648C115.036 74.2791 114.103 73.0331 112.89 71.8619C111.892 70.9325 110.652 70.2176 109.552 69.4652C108.312 68.7502 106.829 68.2497 105.524 67.8514C104.601 67.2012 103.231 67.1194 101.721 67.0752C99.8944 66.9662 98.1798 67.276 96.4653 67.5858C89.7468 68.7876 83.552 71.9436 77.6368 75.0246C71.442 78.1806 65.4991 81.7178 59.7334 85.3572C57.0229 86.9812 54.452 88.5677 51.7788 90.3312C47.7553 93.2046 43.5919 96.1154 39.5684 98.9888C32.909 103.765 26.3244 108.821 19.8797 113.839C18.1474 115.201 16.4151 116.563 14.6829 117.925C13.053 119.109 11.6002 120.396 10.0077 121.721C6.72039 124.546 3.57279 127.335 0.285439 130.16C6.61016 126.371 12.7577 122.48 18.9427 118.728C23.982 115.732 29.0213 112.736 34.0232 109.601C39.5467 106.176 45.0329 102.611 50.519 99.0467C52.0466 98.039 53.7139 96.9938 55.204 95.8465C57.9796 93.9059 60.8299 92.2445 63.6429 90.4436C67.881 87.8119 72.1191 85.1802 76.3947 82.6882C78.621 81.4932 80.7076 80.3357 82.934 79.1407C85.3001 77.9083 87.6662 76.6758 90.2095 75.5455C93.3118 74.2655 96.4889 73.2646 99.8156 72.822C101.046 72.9411 102.099 72.9582 103.329 73.0773C104.28 73.2714 105.408 73.5676 106.257 73.9387C107.105 74.3098 107.991 74.8204 108.699 75.229C109.483 75.9167 110.127 76.6419 110.77 77.367C112.17 79.2361 113.29 81.1801 114.27 83.1615C115.55 86.2596 116.587 89.5722 117.727 92.7077C117.914 93.4056 118.203 93.9265 118.39 94.6245C118.764 96.0203 119.455 97.4808 119.969 98.8392C120.296 99.4997 120.585 100.021 120.912 100.681C121.239 101.342 121.668 101.825 122.237 102.271C122.666 102.754 123.375 103.163 123.943 103.609C124.335 103.953 124.829 104.12 125.184 104.324C125.678 104.491 126.032 104.695 126.526 104.862C127.831 105.26 129.239 105.481 130.571 105.424C132.044 105.328 133.479 105.093 134.737 104.756C137.951 103.895 140.979 102.336 143.689 100.712C145.114 99.8811 146.362 98.9482 147.61 98.0154C148.858 97.0826 150.246 96.1123 151.494 95.1795C154.195 92.9597 156.896 90.74 159.559 88.3807C160.63 87.3457 161.841 86.2733 162.911 85.2384C163.74 84.4179 164.429 83.6348 165.295 82.9539C167.679 80.6695 170.025 78.2455 172.549 75.9237C175.277 73.2477 178.145 70.5344 180.874 67.8584C183.844 64.968 186.712 62.2546 189.683 59.3642C191.098 57.9377 192.551 56.6508 194.143 55.3265C197.393 52.3612 200.681 49.5355 204.182 46.9515C206.399 45.1607 208.653 43.5095 211.084 41.9605C213.375 40.4489 215.769 38.7602 218.312 37.63C219.533 37.1533 220.613 36.7142 221.769 36.5541C221.909 36.5167 222.086 36.6188 222.365 36.5439C222.822 36.5712 223.176 36.7754 223.493 36.8401C224.025 37.1465 224.556 37.4529 225.088 37.7593C225.442 37.9636 225.694 38.3449 226.086 38.6888C227.056 40.0744 227.785 41.6745 228.513 43.2747C229.353 45.2935 229.952 47.5269 230.513 49.6206C230.924 51.1561 231.336 52.6915 231.747 54.2269C232.196 55.902 232.645 57.577 233.131 59.3916C233.318 60.0895 233.682 60.8896 234.009 61.55C234.336 62.2105 234.625 62.7314 234.952 63.3919C235.279 64.0523 235.885 64.6379 236.314 65.1214C236.566 65.5027 236.92 65.7069 237.275 65.9112C237.666 66.2551 238.058 66.5989 238.59 66.9053C239.159 67.3513 239.792 67.4807 240.324 67.7871C240.995 68.0561 241.666 68.325 242.477 68.5565C243.111 68.6859 243.745 68.8153 244.379 68.9446C245.153 69.0366 245.926 69.1285 246.7 69.2204C248.21 69.2647 249.784 68.9923 251.359 68.72C253.074 68.4101 254.713 67.8212 256.391 67.3718C259.428 66.4083 262.353 65.0261 265.139 63.6813C268.166 62.1221 271.119 60.2836 274.072 58.4452C279.875 54.9454 285.286 51.1018 290.837 47.2206C292.467 46.0359 294.237 44.8137 295.866 43.6289C299.648 40.97 303.392 38.1715 307.211 35.6522C310.368 33.4597 313.526 31.2672 316.721 29.2143C318.248 28.2066 319.813 27.3384 321.341 26.3307C322.104 25.8268 323.008 25.2855 323.772 24.7817C325.057 23.9884 326.342 23.1952 327.805 22.5041C328.364 22.3543 328.923 22.2045 329.482 22.0547C329.622 22.0172 329.622 22.0172 329.762 21.9798C330.014 22.3611 330.088 22.6402 330.34 23.0215C330.49 23.5799 330.602 23.9986 330.752 24.557C330.941 27.4985 330.813 30.3753 330.722 33.3917C330.677 34.8999 330.632 36.4081 330.447 37.9537C330.419 38.4099 330.392 38.8661 330.224 39.3597C330.132 40.1326 330.319 40.8305 330.506 41.5284C330.581 41.8076 330.795 42.0493 330.907 42.4681C331.02 42.8868 331.234 43.1285 331.486 43.5098C331.813 44.1703 332.382 44.6163 332.848 45.2393C333.026 45.3415 333.203 45.4436 333.24 45.5832C333.632 45.927 333.986 46.1313 334.48 46.2981C335.329 46.6692 335.962 46.7986 336.876 46.8531C338.386 46.8973 339.96 46.625 341.321 46.1109C342.681 45.5968 344.004 44.9432 345.327 44.2895C346.51 43.6733 347.832 43.0196 349.015 42.4034C352.043 40.8442 354.819 38.9036 357.594 36.963C363.005 33.1194 368.277 29.3132 373.511 25.3674C380.72 19.8453 388.283 14.5275 395.566 9.28456C397.438 7.88532 399.31 6.48606 401.359 5.18896C403.753 3.50033 406.109 1.67212 408.54 0.123083C403.966 1.49849 399.615 3.7114 395.125 5.96177ZM329.37 21.6359C329.51 21.5985 329.547 21.738 329.687 21.7006C329.51 21.5985 329.37 21.6359 329.37 21.6359Z" fill="#37FF9F"/>
</svg>
