<svg width="152" height="152" viewBox="0 0 152 152" fill="none" xmlns="http://www.w3.org/2000/svg">
<g id="ri:wordpress-fill">
<path id="Vector" d="M21.0457 76C21.0457 97.774 33.7124 116.533 52.0284 125.451L25.8211 53.637C22.6732 60.6722 21.046 68.2927 21.0457 76ZM76.0001 130.954C82.2222 130.946 88.3987 129.893 94.2717 127.838L93.8791 127.104L76.9691 80.826L60.5024 128.712C65.3791 130.169 70.5914 130.954 76.0001 130.954ZM83.5494 50.2233L103.43 109.313L108.933 90.9973C111.277 83.3973 113.075 77.9443 113.075 73.2197C113.075 66.3987 110.637 61.7183 108.591 58.1147C105.767 53.5357 103.183 49.6913 103.183 45.201C103.183 40.1343 106.983 35.4603 112.442 35.4603H113.12C102.994 26.1673 89.7438 21.0219 76.0001 21.0457C66.8987 21.0448 57.9399 23.3062 49.9293 27.6266C41.9187 31.9469 35.1077 38.1907 30.1087 45.7963L33.6174 45.8913C39.3617 45.8913 48.2284 45.163 48.2284 45.163C51.2494 45.0173 51.5914 49.3493 48.6211 49.6913C48.6211 49.6913 45.6444 50.084 42.2877 50.2297L62.3644 109.763L74.3977 73.7137L65.8161 50.2297C63.8969 50.1234 61.9813 49.9608 60.0717 49.742C57.0951 49.552 57.4371 45.0173 60.4074 45.163C60.4074 45.163 69.4704 45.8913 74.8791 45.8913C80.6297 45.8913 89.4964 45.163 89.4964 45.163C92.4667 45.0173 92.8531 49.3493 89.8827 49.6913C89.8827 49.6913 86.9124 50.0333 83.5494 50.2297V50.2233ZM103.626 123.494C116.009 116.296 125.092 104.548 128.94 90.7517C132.788 76.9556 131.098 62.2022 124.228 49.6343C125.099 58.2636 123.793 66.9736 120.428 74.9677L103.62 123.5L103.626 123.494ZM76.0001 139.333C59.203 139.333 43.094 132.661 31.2167 120.783C19.3393 108.906 12.6667 92.797 12.6667 76C12.6667 59.2029 19.3393 43.0939 31.2167 31.2166C43.094 19.3393 59.203 12.6667 76.0001 12.6667C92.7971 12.6667 108.906 19.3393 120.784 31.2166C132.661 43.0939 139.333 59.2029 139.333 76C139.333 92.797 132.661 108.906 120.784 120.783C108.906 132.661 92.7971 139.333 76.0001 139.333Z" fill="#0073AA"/>
</g>
</svg>
