<svg width="208" height="208" viewBox="0 0 208 208" fill="none" xmlns="http://www.w3.org/2000/svg">
<g id="vscode-icons:file-type-reactjs">
<path id="Vector" d="M104 120.081C112.975 120.081 120.25 112.806 120.25 103.831C120.25 94.8564 112.975 87.581 104 87.581C95.0254 87.581 87.75 94.8564 87.75 103.831C87.75 112.806 95.0254 120.081 104 120.081Z" fill="#00D8FF"/>
<path id="Vector_2" d="M104 141.089C84.4684 141.561 64.9857 138.929 46.28 133.289C37.639 130.55 29.5798 126.235 22.5095 120.562C19.8115 118.624 17.5648 116.125 15.9233 113.237C14.2819 110.349 13.2846 107.141 13 103.831C13 93.0865 24.804 82.5565 44.577 75.6665C63.7828 69.5614 83.8495 66.6025 104 66.9045C123.882 66.6267 143.68 69.5321 162.643 75.5105C170.965 78.1635 178.751 82.27 185.64 87.6395C188.292 89.4871 190.505 91.8952 192.122 94.6933C193.74 97.4914 194.722 100.611 195 103.831C195 114.998 181.805 126.314 160.55 133.347C142.207 138.803 123.135 141.414 104 141.089ZM104 74.6785C84.7217 74.4208 65.5254 77.2337 47.1315 83.0115C28.9315 89.362 20.774 98.046 20.774 103.811C20.774 109.843 29.5425 119.327 48.7955 125.911C66.6905 131.28 85.323 133.778 104 133.315C122.307 133.642 140.556 131.165 158.113 125.97C178.1 119.346 187.2 109.85 187.2 103.831C186.872 101.765 186.119 99.7904 184.989 98.0305C183.859 96.2707 182.377 94.7643 180.635 93.6065C174.471 88.8429 167.516 85.2035 160.089 82.8555C141.947 77.1599 123.012 74.3995 104 74.6785Z" fill="#00D8FF"/>
<path id="Vector_3" d="M67.08 184.88C64.0478 184.949 61.0513 184.213 58.396 182.747C49.088 177.378 45.864 161.896 49.7705 141.323C54.0777 121.635 61.5408 102.773 71.8705 85.4685C81.5603 68.1077 93.9652 52.4089 108.615 38.9675C115.071 33.0831 122.518 28.389 130.611 25.103C133.538 23.7311 136.732 23.02 139.965 23.02C143.197 23.02 146.391 23.7311 149.318 25.103C158.997 30.68 162.201 47.762 157.684 69.6865C153.243 88.3062 145.974 106.135 136.13 122.551C126.781 139.707 114.766 155.269 100.536 168.656C93.8456 174.771 86.0817 179.595 77.636 182.884C74.2549 184.139 70.686 184.814 67.08 184.88ZM78.6045 89.3295C68.7512 105.9 61.5983 123.934 57.4145 142.753C53.82 161.701 57.2715 173.095 62.2895 175.994C67.4895 179.004 80.1125 176.15 95.4395 162.76C109.025 149.935 120.492 135.039 129.415 118.625C138.846 102.931 145.819 85.8854 150.092 68.081C154.343 47.4435 150.67 34.8075 145.457 31.8045C143.503 31.0559 141.415 30.7208 139.325 30.8203C137.235 30.9199 135.189 31.452 133.315 32.383C126.111 35.3558 119.488 39.5761 113.75 44.85C99.7534 57.7251 87.904 72.7541 78.65 89.3685L78.6045 89.3295Z" fill="#00D8FF"/>
<path id="Vector_4" d="M140.901 184.964C132.093 184.964 120.907 179.634 109.259 169.617C94.3521 156.054 81.7374 140.169 71.903 122.577C61.7028 105.51 54.2989 86.9215 49.972 67.5155C48.0956 58.9777 47.7478 50.1747 48.945 41.5155C49.2218 38.3032 50.2 35.1908 51.8105 32.3977C53.421 29.6046 55.6246 27.1988 58.266 25.35C67.9315 19.7535 84.331 25.506 101.069 40.365C114.982 53.5092 126.798 68.7096 136.104 85.436C146.297 102.104 153.779 120.286 158.269 139.301C160.226 148.153 160.528 157.29 159.159 166.251C158.833 169.555 157.797 172.75 156.121 175.617C154.445 178.483 152.168 180.954 149.448 182.858C146.836 184.306 143.886 185.033 140.901 184.964ZM78.6305 118.664C88.0648 135.476 100.115 150.679 114.329 163.702C128.947 176.28 140.543 178.984 145.529 176.052C150.729 173.03 154.564 160.693 150.612 140.731C146.282 122.577 139.106 105.221 129.35 89.31C120.47 73.3013 109.192 58.7461 95.9075 46.15C80.1515 32.162 67.3725 29.0355 62.166 32.0515C60.5433 33.3702 59.2116 35.0111 58.255 36.8705C57.2985 38.7299 56.7378 40.7675 56.6085 42.8545C55.5751 50.5771 55.9117 58.4214 57.6031 66.027C61.765 84.5854 68.8659 102.36 78.637 118.677L78.6305 118.664Z" fill="#00D8FF"/>
</g>
</svg>
