<svg width="72" height="109" viewBox="0 0 72 109" fill="none" xmlns="http://www.w3.org/2000/svg">
<g id="logos:figma" clip-path="url(#clip0_1061_25)">
<path id="Vector" d="M18 109C27.936 109 36 100.861 36 90.8333V72.6667H18C8.064 72.6667 0 80.8053 0 90.8333C0 100.861 8.064 109 18 109Z" fill="#0ACF83"/>
<path id="Vector_2" d="M0 54.5C0 44.472 8.064 36.3333 18 36.3333H36V72.6667H18C8.064 72.6667 0 64.528 0 54.5Z" fill="#A259FF"/>
<path id="Vector_3" d="M0 18.1667C0 8.13867 8.064 0 18 0L36 0V36.3333H18C8.064 36.3333 0 28.1947 0 18.1667Z" fill="#F24E1E"/>
<path id="Vector_4" d="M36 0L54 0C63.936 0 72 8.13867 72 18.1667C72 28.1947 63.936 36.3333 54 36.3333H36V0Z" fill="#FF7262"/>
<path id="Vector_5" d="M72 54.5C72 64.528 63.936 72.6667 54 72.6667C44.064 72.6667 36 64.528 36 54.5C36 44.472 44.064 36.3333 54 36.3333C63.936 36.3333 72 44.472 72 54.5Z" fill="#1ABCFE"/>
</g>
<defs>
<clipPath id="clip0_1061_25">
<rect width="72" height="109" fill="white"/>
</clipPath>
</defs>
</svg>
