<svg width="187" height="29" viewBox="0 0 187 29" fill="none" xmlns="http://www.w3.org/2000/svg">
<g id="Frame 100">
<path id="Vector" d="M36.2716 23.1167V5.88333H39.3919V20.4522H47.6314V23.1167H36.2716ZM49.96 23.1167V5.88333H53.0803V23.1167H49.96ZM56.8162 23.1167V5.88333H59.1564L68.3955 17.91V5.88333H71.2964V23.1167H68.9806L59.7171 11.0411V23.1167H56.8162ZM73.1992 23.1167L80.9756 5.88333H83.5352L91.3116 23.1167H88.1425L86.4361 19.1322H78.0503L76.3683 23.1167H73.1992ZM82.2188 9.28111L79.1229 16.6389H85.3635L82.2676 9.28111H82.2188ZM93.192 23.1167V5.88333H100.651C102.537 5.88333 103.991 6.33963 105.015 7.25222C106.039 8.14851 106.551 9.41148 106.551 11.0411C106.551 12.3285 106.218 13.3959 105.551 14.2433C104.885 15.0744 103.926 15.6367 102.675 15.93C103.504 16.1907 104.186 16.8181 104.722 17.8122L107.599 23.1167H104.162L101.188 17.6167C100.895 17.0789 100.546 16.7122 100.14 16.5167C99.7495 16.3211 99.2457 16.2233 98.6282 16.2233H96.3123V23.1167H93.192ZM96.3123 13.9011H100.115C102.39 13.9011 103.528 12.9722 103.528 11.1144C103.528 9.27296 102.39 8.35222 100.115 8.35222H96.3123V13.9011ZM109.903 23.1167V5.88333H113.024V23.1167H109.903ZM122.683 23.3611C121.334 23.3611 120.083 23.19 118.929 22.8478C117.775 22.4893 116.8 22.0085 116.004 21.4056L116.954 18.9367C117.751 19.507 118.62 19.947 119.563 20.2567C120.522 20.5663 121.562 20.7211 122.683 20.7211C123.967 20.7211 124.902 20.5093 125.487 20.0856C126.072 19.6456 126.364 19.0833 126.364 18.3989C126.364 17.8285 126.153 17.3804 125.73 17.0544C125.324 16.7285 124.617 16.4596 123.61 16.2478L120.928 15.6856C117.873 15.0337 116.345 13.4611 116.345 10.9678C116.345 9.89222 116.629 8.95518 117.198 8.15666C117.767 7.35814 118.555 6.73889 119.563 6.29889C120.57 5.85889 121.732 5.63889 123.049 5.63889C124.219 5.63889 125.316 5.81814 126.34 6.17666C127.364 6.51889 128.217 7.00777 128.899 7.64333L127.949 9.99C126.6 8.84926 124.958 8.27888 123.024 8.27888C121.903 8.27888 121.026 8.51518 120.392 8.98777C119.758 9.46037 119.441 10.0796 119.441 10.8456C119.441 11.4322 119.636 11.9048 120.026 12.2633C120.416 12.6056 121.082 12.8744 122.025 13.07L124.682 13.6322C126.291 13.9744 127.486 14.5122 128.266 15.2456C129.062 15.9789 129.46 16.9567 129.46 18.1789C129.46 19.2056 129.184 20.11 128.631 20.8922C128.079 21.6744 127.29 22.2855 126.267 22.7255C125.259 23.1493 124.065 23.3611 122.683 23.3611ZM138.185 23.1167V5.88333H144.572C147.449 5.88333 149.667 6.62481 151.227 8.10777C152.803 9.59074 153.592 11.7174 153.592 14.4878C153.592 17.2418 152.803 19.3685 151.227 20.8678C149.667 22.367 147.449 23.1167 144.572 23.1167H138.185ZM141.305 20.5256H144.377C148.342 20.5256 150.325 18.513 150.325 14.4878C150.325 10.4789 148.342 8.47444 144.377 8.47444H141.305V20.5256ZM156.754 23.1167V5.88333H168.187V8.37666H159.752V13.1189H167.651V15.6122H159.752V20.6233H168.187V23.1167H156.754ZM176.737 23.1167L169.083 5.88333H172.422L178.102 19.1078L183.782 5.88333H187L179.346 23.1167H176.737Z" fill="white"/>
<path id="Vector_2" d="M131.384 23.3611V19.3333H135.414V23.3611H131.384Z" fill="#37FF9F"/>
<path id="Vector_3" d="M9.00449 7.24718C9.24786 6.06892 10.2384 5.19441 11.4337 5.10256L25.3145 4.03588C27.0369 3.90352 28.4355 5.4114 28.1812 7.12646L25.279 26.6963C25.0564 28.1977 23.6453 29.2201 22.1556 28.9594L7.87134 26.4598C6.37435 26.1978 5.39034 24.7444 5.69884 23.2509L9.00449 7.24718Z" fill="#37FF9F"/>
<path id="Vector_4" d="M3.34025 3.15747C3.58955 1.9911 4.58138 1.12846 5.77507 1.03981L19.6738 0.00764256C21.4008 -0.120613 22.799 1.38442 22.5373 3.08996L19.6527 21.8877C19.4252 23.3702 18.0226 24.3793 16.5386 24.1284L2.24395 21.7111C0.733565 21.4557 -0.259357 19.9986 0.0597101 18.5058L3.34025 3.15747Z" fill="#37FFFF" fill-opacity="0.85"/>
</g>
</svg>
